<?xml version="1.0" encoding="UTF-8" standalone="no"?>
<svg
   xmlns:dc="http://purl.org/dc/elements/1.1/"
   xmlns:cc="http://creativecommons.org/ns#"
   xmlns:rdf="http://www.w3.org/1999/02/22-rdf-syntax-ns#"
   xmlns:svg="http://www.w3.org/2000/svg"
   xmlns="http://www.w3.org/2000/svg"
   xmlns:sodipodi="http://sodipodi.sourceforge.net/DTD/sodipodi-0.dtd"
   xmlns:inkscape="http://www.inkscape.org/namespaces/inkscape"
   height="64"
   width="64"
   version="1.1"
   x="0px"
   y="0px"
   viewBox="0 0 3.4133333 3.4133333"
   style="fill:#ffffff"
   xml:space="preserve"
   id="svg3467"
   inkscape:version="0.91 r13725"
   sodipodi:docname="copy.svg"><metadata
     id="metadata3481"><rdf:RDF><cc:Work
         rdf:about=""><dc:format>image/svg+xml</dc:format><dc:type
           rdf:resource="http://purl.org/dc/dcmitype/StillImage" /><dc:title /></cc:Work></rdf:RDF></metadata><defs
     id="defs3479" /><sodipodi:namedview
     pagecolor="#ffffff"
     bordercolor="#666666"
     borderopacity="1"
     objecttolerance="10"
     gridtolerance="10"
     guidetolerance="10"
     inkscape:pageopacity="0"
     inkscape:pageshadow="2"
     inkscape:window-width="2560"
     inkscape:window-height="1377"
     id="namedview3477"
     showgrid="false"
     inkscape:zoom="8.9001173"
     inkscape:cx="9.2394986"
     inkscape:cy="17.414325"
     inkscape:window-x="-8"
     inkscape:window-y="-8"
     inkscape:window-maximized="1"
     inkscape:current-layer="svg3467" /><path
     style="fill:#b3b3b3"
     inkscape:connector-curvature="0"
     id="path3471"
     d="m 2.4533336,3.2533334 -1.9200004,0 c -0.0588807,0 -0.10666657,-0.057769 -0.10666657,-0.128888 l 0,-2.32000086 c 0,-0.0711483 0.0477875,-0.12888961 0.10666657,-0.12888961 l 1.9200004,0 c 0.058886,0 0.1066668,0.0577443 0.1066668,0.12888961 l 0,2.32000086 c 0,0.071166 -0.047787,0.128888 -0.1066668,0.128888 z m -1.81333374,-0.2577751 1.70666754,0 0,-2.0622244 -1.70666754,0 0,2.0622244 z" /><path
     style="fill:#b3b3b3"
     inkscape:connector-curvature="0"
     id="path3473"
     d="m 2.8800005,2.7377772 c -0.058886,0 -0.1066666,-0.057737 -0.1066666,-0.128888 l 0,-2.1911114 -1.8133343,0 c -0.0588807,0 -0.10666661,-0.0577443 -0.10666661,-0.12888877 0,-0.0711484 0.0477869,-0.12888877 0.10666661,-0.12888877 l 1.9200005,0 c 0.058885,0 0.1066667,0.0577428 0.1066667,0.12888877 l 0,2.32000017 c 0,0.071166 -0.047789,0.128888 -0.1066667,0.128888 z" /></svg>